<?xml version="1.0" encoding="utf-8"?>
<!-- Generator: Adobe Illustrator 26.0.1, SVG Export Plug-In . SVG Version: 6.00 Build 0)  -->
<svg version="1.1" id="Layer_1" xmlns="http://www.w3.org/2000/svg" xmlns:xlink="http://www.w3.org/1999/xlink" x="0px" y="0px"
	 viewBox="0 0 841.89 595.28" style="enable-background:new 0 0 841.89 595.28;" xml:space="preserve">
<style type="text/css">
	.st0{fill:#B2B2B2;}
	.st1{fill:#FFDE08;}
	.st2{fill:none;}
	.st3{fill:#0967B1;}
</style>
<g>
	<path class="st0" d="M582.06,450.71c-0.91-2-1.89-3.94-2.93-5.82l-156.04-343.2L263.38,455.92h0.21
		c-11.13,29.58-4.22,60,16.45,70.6l52-115.25c-0.05-0.02-0.1-0.03-0.15-0.05l19.09-42.58h0.11l17.46-38.82h-0.16l54.57-121.66
		l55.16,121.66h-0.15l17.73,38.82h0.03l4.54,10l5.33,11.67l-0.04,0l9.49,20.92c-0.04,0.01-0.08,0.03-0.12,0.04l19.24,42.12
		l1.15,2.53h0.01l32.24,70.6C589.74,515.3,596.28,481.85,582.06,450.71z"/>
	<g>
		<g>
			<g>
				<path class="st0" d="M340.45,295.14c0,0,11.35,26.48,4.76,32.34C338.61,333.33,336.8,314.12,340.45,295.14z"/>
				<path class="st0" d="M329.29,293.8c0,0,7.69,31.29-1.15,34.52C319.3,331.54,321.16,311.45,329.29,293.8z"/>
				<path class="st0" d="M315.1,289.62c0,0,2.54,36.75-8.05,38.65S302.49,307.9,315.1,289.62z"/>
				<path class="st0" d="M299.12,287.86c0,0,2.54,36.75-8.05,38.65C280.49,328.4,286.51,306.14,299.12,287.86z"/>
				<path class="st0" d="M285.13,276.03c0,0-2.91,46.3-16.44,46.92S266.36,296.77,285.13,276.03z"/>
				<path class="st0" d="M256.28,258.4c0,0-20.09,50.36-35.34,46.12C205.68,300.29,227.88,274.6,256.28,258.4z"/>
				<path class="st0" d="M272.3,268.52c0,0-12.45,47.84-27.33,47.69C230.08,316.07,247.67,288.93,272.3,268.52z"/>
				<path class="st0" d="M241.55,249.51c0,0-26.46,49.84-41.77,43.74S210.34,263.07,241.55,249.51z"/>
				<path class="st0" d="M230.19,236.11c0,0-33.59,51.04-49.47,42.91C164.84,270.88,195.17,247.56,230.19,236.11z"/>
				<path class="st0" d="M217.1,227.57c0,0-44.1,42.29-57.77,30.83C145.65,246.94,180.41,230.95,217.1,227.57z"/>
				<path class="st0" d="M188.6,205.44c-21.83,9.2-53.26,25.56-76.51,9.38c17.59-20.19,46.55-5.71,68.2-9.93
					C183.06,204.98,185.84,205.16,188.6,205.44z"/>
				<path class="st0" d="M169.98,194.49c-3.43,0.79-6.92,1.52-10.44,2.16c-3.52,0.64-7.08,1.21-10.66,1.66
					c-28.32,4-59.95-2.91-81.35-21.46c29.43-8.92,57.62,8.15,85.92,13.59c3.95,0.74,7.89,1.33,11.83,1.69
					C166.98,192.8,168.54,193.59,169.98,194.49z"/>
				<path class="st0" d="M161.46,180.31c-3.47-0.03-6.93-0.13-10.37-0.32s-6.87-0.46-10.27-0.85c-3.59-0.86-7.3-1.76-11.07-2.73
					c-3.77-0.97-7.62-2.01-11.53-3.17c-37.05-10.67-78.42-29.68-87.3-70.42c28.16,24.61,57.07,50.74,93.52,60.88
					c3.42,1.77,6.84,3.5,10.27,5.21c3.43,1.7,6.87,3.38,10.31,5.03c3.19,1.11,6.46,2.11,9.83,2.95
					C157.2,177.99,159.4,179.13,161.46,180.31z"/>
				<path class="st0" d="M177.15,173.26c-11.04-1.97-22.03-4.59-32.47-8.16c-3.48-1.19-6.89-2.48-10.23-3.89
					c-3.44-1.45-6.85-3.14-10.22-5.03c-31.3-15.08-58.8-51.63-33.33-87.42c-11.86,39.01,16.32,67.88,49.17,83.7
					c3.51,1.8,7.11,3.51,10.7,5.2c7.2,3.39,14.4,6.73,21.16,10.39C173.91,169.69,175.65,171.43,177.15,173.26z"/>
				<path class="st0" d="M194.47,169.09c-9.53-2.34-18.97-5.24-27.88-8.93c-2.97-1.23-5.88-2.55-8.71-3.96
					c-2.92-1.46-5.8-3.12-8.64-4.96c-26.47-14.9-48.43-48.34-24.21-78.15c-12.52,33.38,10.46,60.15,38.24,75.78
					c2.96,1.76,6.01,3.46,9.05,5.14c6.09,3.36,12.19,6.67,17.89,10.25C191.84,165.8,193.26,167.41,194.47,169.09z"/>
				<path class="st0" d="M201.5,168.85c-6.19-4.27-12.18-8.92-17.56-13.99c-1.79-1.69-3.52-3.43-5.17-5.21
					c-1.7-1.84-3.31-3.82-4.85-5.91c-14.93-17.89-21.58-47.83,3.9-62.62c-18.06,20.53-8.86,45.97,6.8,64.74
					c1.64,2.07,3.37,4.11,5.09,6.14c3.45,4.07,6.93,8.1,10.04,12.21C200.51,165.78,201.09,167.32,201.5,168.85z"/>
				<path class="st0" d="M200.37,217.09c-18.5,12.23-43.46,33.99-66.77,21.08c-4.52-1.53-2.23-8.3,2.31-10.54
					c16.23-7.09,32.82-7.78,50.09-10.2C190.71,217.09,195.53,216.96,200.37,217.09z"/>
				<g>
					<path class="st0" d="M320.9,261.75c0,0,5.08,13.31,0.78,14.87S317.52,269.5,320.9,261.75z"/>
					<path class="st0" d="M314.34,259.47c0,0,2.6,14.86-2.87,14.93S308.38,265.97,314.34,259.47z"/>
					<path class="st0" d="M306.16,255.5c0,0-0.82,16.47-7.24,15.7S297.49,261.59,306.16,255.5z"/>
					<path class="st0" d="M296.75,252.31c0,0-0.82,16.47-7.24,15.7C283.09,267.24,288.09,258.41,296.75,252.31z"/>
					<path class="st0" d="M289.17,245.02c0,0-4.66,19.83-12.76,18.05C268.32,261.3,276.69,251.26,289.17,245.02z"/>
					<path class="st0" d="M273.11,232.94c0,0-15.15,19-23.96,14.84C240.34,243.62,255.18,235.74,273.11,232.94z"/>
					<path class="st0" d="M282.01,239.79c0,0-10.44,19.06-19.29,16.74C253.87,254.22,266.06,245,282.01,239.79z"/>
					<path class="st0" d="M264.91,226.82c0,0-18.91,17.81-27.63,12.83C228.55,234.66,245.47,228.04,264.91,226.82z"/>
					<path class="st0" d="M259,219.24c0,0-23.23,17.26-32.17,11.3S237.42,218.95,259,219.24z"/>
					<path class="st0" d="M251.74,213.52c0,0-28.93,11.84-36.34,4.76C207.99,211.2,229.69,209.45,251.74,213.52z"/>
					<path class="st0" d="M236.18,199.52c-13.58,0.72-33.32,3.14-46.14-7.46c11.75-6.18,28.07,4.54,41.22,5.97
						C232.91,198.48,234.55,198.98,236.18,199.52z"/>
					<path class="st0" d="M242.45,206.4c-11.79,2.56-28.02,8.31-41.08-0.87c-2.59-1.35-0.8-3.97,2.04-4.27
						c10.11-0.65,20.03,1.56,30.46,3.11C236.7,204.94,239.58,205.62,242.45,206.4z"/>
				</g>
				<path class="st0" d="M356.86,307.83c-1.26-3.18-2.56-6.4-3.91-9.62c-1.35-3.22-2.75-6.44-4.24-9.66
					c-15.43-42.76-61.6-60.23-96.66-85.59c-2.55-1.85-5.1-3.7-7.66-5.57c-7.67-5.59-15.39-11.24-23.11-17.07
					c7.71,5.36,15.6,10.55,23.61,15.6c2.67,1.68,5.36,3.35,8.05,5c39.44,23.8,100.18,34.15,103.81,86.33
					c0.68,3.85,1.14,7.73,1.44,11.58c0.3,3.85,0.42,7.68,0.42,11.44L356.86,307.83z"/>
				<path class="st0" d="M215.1,171.82c36.7,12.68,73.94,29.03,107.33,50.62c3.45,2.02,6.9,4.02,10.36,5.98
					c17.32,9.8,35,18.48,54.76,21.89L215.1,171.82z"/>
			</g>
		</g>
		<g>
			<g>
				<path class="st0" d="M492.49,302.27c0,0-11.35,26.48-4.76,32.34C494.32,340.47,496.13,321.26,492.49,302.27z"/>
				<path class="st0" d="M503.65,300.93c0,0-7.69,31.29,1.15,34.52S511.78,318.58,503.65,300.93z"/>
				<path class="st0" d="M517.83,296.75c0,0-2.54,36.75,8.05,38.65C536.47,337.3,530.45,315.04,517.83,296.75z"/>
				<path class="st0" d="M533.82,294.99c0,0-2.54,36.75,8.05,38.65C552.45,335.54,546.43,313.27,533.82,294.99z"/>
				<path class="st0" d="M547.81,283.16c0,0,2.91,46.3,16.44,46.92S566.58,303.91,547.81,283.16z"/>
				<path class="st0" d="M576.66,265.54c0,0,20.08,50.36,35.34,46.12C627.26,307.42,605.06,281.73,576.66,265.54z"/>
				<path class="st0" d="M560.64,275.66c0,0,12.45,47.84,27.33,47.69C602.86,323.2,585.27,296.06,560.64,275.66z"/>
				<path class="st0" d="M591.39,256.65c0,0,26.46,49.84,41.77,43.74C648.47,294.28,622.6,270.21,591.39,256.65z"/>
				<path class="st0" d="M602.75,243.25c0,0,33.59,51.04,49.47,42.91C668.1,278.02,637.77,254.69,602.75,243.25z"/>
				<path class="st0" d="M615.84,234.71c0,0,44.1,42.29,57.77,30.83C687.29,254.08,652.53,238.08,615.84,234.71z"/>
				<path class="st0" d="M644.34,212.57c21.83,9.2,53.26,25.56,76.51,9.38c-17.59-20.19-46.55-5.71-68.2-9.93
					C649.88,212.11,647.1,212.29,644.34,212.57z"/>
				<path class="st0" d="M662.96,201.62c3.43,0.79,6.92,1.52,10.44,2.16c3.52,0.64,7.08,1.21,10.66,1.66
					c28.32,4,59.95-2.91,81.35-21.46c-29.43-8.92-57.62,8.15-85.92,13.59c-3.95,0.74-7.89,1.33-11.83,1.69
					C665.96,199.94,664.39,200.73,662.96,201.62z"/>
				<path class="st0" d="M671.48,187.45c3.47-0.03,6.93-0.13,10.37-0.32s6.87-0.46,10.27-0.85c3.59-0.86,7.3-1.76,11.07-2.73
					s7.62-2.01,11.53-3.17c37.05-10.67,78.42-29.68,87.3-70.42c-28.16,24.61-57.07,50.74-93.52,60.88
					c-3.42,1.77-6.84,3.5-10.27,5.21c-3.43,1.7-6.87,3.38-10.31,5.03c-3.19,1.11-6.46,2.11-9.83,2.95
					C675.74,185.13,673.54,186.26,671.48,187.45z"/>
				<path class="st0" d="M655.78,180.4c11.04-1.97,22.03-4.59,32.47-8.16c3.48-1.19,6.89-2.48,10.23-3.89
					c3.44-1.45,6.85-3.14,10.22-5.03c31.3-15.08,58.8-51.63,33.33-87.42c11.86,39.01-16.32,67.88-49.17,83.7
					c-3.51,1.8-7.11,3.51-10.7,5.2c-7.2,3.39-14.4,6.73-21.16,10.39C659.02,176.83,657.29,178.56,655.78,180.4z"/>
				<path class="st0" d="M638.47,176.23c9.53-2.34,18.97-5.24,27.88-8.93c2.97-1.23,5.88-2.55,8.71-3.96
					c2.92-1.46,5.8-3.12,8.64-4.96c26.47-14.9,48.43-48.34,24.21-78.15c12.52,33.38-10.46,60.15-38.24,75.78
					c-2.96,1.76-6.01,3.46-9.05,5.14c-6.09,3.36-12.19,6.67-17.89,10.25C641.1,172.93,639.68,174.54,638.47,176.23z"/>
				<path class="st0" d="M631.44,175.99c6.19-4.27,12.18-8.92,17.56-13.99c1.79-1.69,3.52-3.43,5.17-5.21
					c1.7-1.84,3.31-3.82,4.85-5.91c14.93-17.89,21.58-47.83-3.9-62.62c18.06,20.53,8.86,45.97-6.8,64.74
					c-1.64,2.07-3.37,4.11-5.09,6.14c-3.45,4.07-6.93,8.1-10.04,12.21C632.43,172.91,631.85,174.45,631.44,175.99z"/>
				<path class="st0" d="M632.57,224.22c18.5,12.23,43.46,33.99,66.77,21.08c4.52-1.53,2.23-8.3-2.31-10.54
					c-16.23-7.09-32.82-7.78-50.09-10.2C642.23,224.23,637.41,224.1,632.57,224.22z"/>
				<g>
					<path class="st0" d="M512.04,268.88c0,0-5.08,13.31-0.78,14.87C515.55,285.32,515.42,276.64,512.04,268.88z"/>
					<path class="st0" d="M518.6,266.61c0,0-2.6,14.86,2.87,14.93C526.94,281.62,524.56,273.1,518.6,266.61z"/>
					<path class="st0" d="M526.78,262.63c0,0,0.82,16.47,7.24,15.7C540.44,277.56,535.45,268.73,526.78,262.63z"/>
					<path class="st0" d="M536.18,259.45c0,0,0.82,16.47,7.24,15.7C549.85,274.38,544.85,265.54,536.18,259.45z"/>
					<path class="st0" d="M543.76,252.15c0,0,4.66,19.83,12.76,18.05C564.62,268.43,556.25,258.39,543.76,252.15z"/>
					<path class="st0" d="M559.82,240.07c0,0,15.15,19,23.96,14.84C592.6,250.76,577.75,242.87,559.82,240.07z"/>
					<path class="st0" d="M550.93,246.93c0,0,10.44,19.06,19.29,16.74S566.88,252.14,550.93,246.93z"/>
					<path class="st0" d="M568.03,233.96c0,0,18.91,17.81,27.63,12.83C604.39,241.8,587.47,235.17,568.03,233.96z"/>
					<path class="st0" d="M573.94,226.37c0,0,23.23,17.26,32.17,11.3S595.51,226.09,573.94,226.37z"/>
					<path class="st0" d="M581.19,220.66c0,0,28.93,11.84,36.34,4.76C624.95,218.33,603.25,216.59,581.19,220.66z"/>
					<path class="st0" d="M596.76,206.66c13.58,0.72,33.32,3.14,46.14-7.46c-11.75-6.18-28.07,4.54-41.22,5.97
						C600.02,205.62,598.38,206.12,596.76,206.66z"/>
					<path class="st0" d="M590.49,213.54c11.79,2.56,28.02,8.31,41.08-0.87c2.59-1.35,0.8-3.97-2.04-4.27
						c-10.11-0.65-20.03,1.56-30.46,3.11C596.24,212.08,593.36,212.75,590.49,213.54z"/>
				</g>
				<path class="st0" d="M476.07,314.96c1.26-3.18,2.56-6.4,3.91-9.62c1.35-3.22,2.75-6.44,4.24-9.66
					c15.43-42.76,61.6-60.23,96.66-85.59c2.55-1.85,5.1-3.7,7.66-5.57c7.67-5.59,15.39-11.24,23.11-17.07
					c-7.71,5.36-15.6,10.55-23.61,15.6c-2.67,1.68-5.36,3.35-8.05,5c-39.44,23.8-100.18,34.15-103.81,86.33
					c-0.68,3.85-1.14,7.73-1.44,11.58s-0.42,7.68-0.42,11.44L476.07,314.96z"/>
				<path class="st0" d="M617.84,178.96c-36.7,12.68-73.94,29.03-107.33,50.62c-3.45,2.02-6.9,4.02-10.36,5.98
					c-17.32,9.8-35,18.48-54.76,21.89L617.84,178.96z"/>
			</g>
		</g>
	</g>
	<g>
		<g>
			<g>
				<path class="st1" d="M340.45,290.88c0,0,11.35,26.48,4.76,32.34C338.61,329.07,336.8,309.86,340.45,290.88z"/>
				<path class="st1" d="M329.29,289.54c0,0,7.69,31.29-1.15,34.52S321.15,307.18,329.29,289.54z"/>
				<path class="st1" d="M315.1,285.36c0,0,2.54,36.75-8.05,38.65S302.49,303.64,315.1,285.36z"/>
				<path class="st1" d="M299.12,283.6c0,0,2.54,36.75-8.05,38.65S286.51,301.88,299.12,283.6z"/>
				<path class="st1" d="M285.13,271.77c0,0-2.91,46.3-16.44,46.92C255.15,319.31,266.35,292.51,285.13,271.77z"/>
				<path class="st1" d="M256.27,254.14c0,0-20.09,50.36-35.34,46.12C205.68,296.03,227.88,270.34,256.27,254.14z"/>
				<path class="st1" d="M272.29,264.26c0,0-12.45,47.84-27.33,47.69S247.67,284.67,272.29,264.26z"/>
				<path class="st1" d="M241.54,245.25c0,0-26.46,49.84-41.77,43.74C184.47,282.88,210.34,258.81,241.54,245.25z"/>
				<path class="st1" d="M230.19,231.85c0,0-33.59,51.04-49.47,42.91S195.17,243.3,230.19,231.85z"/>
				<path class="st1" d="M217.09,223.31c0,0-44.1,42.29-57.77,30.83C145.65,242.68,180.41,226.68,217.09,223.31z"/>
				<path class="st1" d="M188.6,201.18c-21.83,9.2-53.26,25.56-76.51,9.38c17.59-20.19,46.55-5.71,68.2-9.93
					C183.06,200.72,185.83,200.9,188.6,201.18z"/>
				<path class="st1" d="M169.98,190.22c-3.43,0.79-6.92,1.52-10.44,2.16c-3.52,0.64-7.08,1.21-10.66,1.66
					c-28.32,4-59.95-2.91-81.35-21.46c29.43-8.92,57.62,8.15,85.92,13.59c3.95,0.74,7.89,1.33,11.83,1.69
					C166.98,188.54,168.54,189.33,169.98,190.22z"/>
				<path class="st1" d="M161.45,176.05c-3.47-0.03-6.93-0.13-10.37-0.32s-6.87-0.46-10.27-0.85c-3.59-0.86-7.3-1.76-11.07-2.73
					c-3.77-0.97-7.62-2.01-11.53-3.17c-37.05-10.67-78.42-29.68-87.3-70.42c28.16,24.61,57.07,50.74,93.52,60.88
					c3.42,1.77,6.84,3.5,10.27,5.21c3.43,1.7,6.87,3.38,10.31,5.03c3.19,1.11,6.46,2.11,9.83,2.95
					C157.19,173.73,159.4,174.87,161.45,176.05z"/>
				<path class="st1" d="M177.15,169c-11.04-1.97-22.03-4.59-32.47-8.16c-3.48-1.19-6.89-2.48-10.23-3.89
					c-3.44-1.45-6.85-3.14-10.22-5.03c-31.3-15.08-58.8-51.63-33.33-87.42c-11.86,39.01,16.32,67.88,49.17,83.7
					c3.51,1.8,7.11,3.51,10.7,5.2c7.2,3.39,14.4,6.73,21.16,10.39C173.91,165.43,175.65,167.17,177.15,169z"/>
				<path class="st1" d="M194.47,164.83c-9.53-2.34-18.97-5.24-27.88-8.93c-2.97-1.23-5.88-2.55-8.71-3.96
					c-2.92-1.46-5.8-3.12-8.64-4.96c-26.47-14.9-48.43-48.34-24.21-78.15c-12.52,33.38,10.46,60.15,38.24,75.78
					c2.96,1.76,6.01,3.46,9.05,5.14c6.09,3.36,12.19,6.67,17.89,10.25C191.84,161.54,193.26,163.15,194.47,164.83z"/>
				<path class="st1" d="M201.49,164.59c-6.19-4.27-12.18-8.92-17.56-13.99c-1.79-1.69-3.52-3.43-5.17-5.21
					c-1.7-1.84-3.31-3.82-4.85-5.91c-14.93-17.89-21.58-47.83,3.9-62.62c-18.06,20.53-8.86,45.97,6.8,64.74
					c1.64,2.07,3.37,4.11,5.09,6.14c3.45,4.07,6.93,8.1,10.04,12.21C200.5,161.52,201.08,163.06,201.49,164.59z"/>
				<path class="st1" d="M200.37,212.83c-18.5,12.23-43.46,33.99-66.77,21.08c-4.52-1.53-2.23-8.3,2.31-10.54
					c16.23-7.09,32.82-7.78,50.09-10.2C190.71,212.83,195.53,212.7,200.37,212.83z"/>
				<g>
					<path class="st1" d="M320.89,257.49c0,0,5.08,13.31,0.78,14.87C317.38,273.93,317.52,265.24,320.89,257.49z"/>
					<path class="st1" d="M314.33,255.21c0,0,2.6,14.86-2.87,14.93S308.37,261.71,314.33,255.21z"/>
					<path class="st1" d="M306.15,251.24c0,0-0.82,16.47-7.24,15.7C292.49,266.17,297.49,257.33,306.15,251.24z"/>
					<path class="st1" d="M296.75,248.05c0,0-0.82,16.47-7.24,15.7S288.09,254.14,296.75,248.05z"/>
					<path class="st1" d="M289.17,240.76c0,0-4.66,19.83-12.76,18.05C268.31,257.03,276.68,247,289.17,240.76z"/>
					<path class="st1" d="M273.11,228.68c0,0-15.15,19-23.96,14.84C240.34,239.36,255.18,231.47,273.11,228.68z"/>
					<path class="st1" d="M282.01,235.53c0,0-10.44,19.06-19.29,16.74C253.87,249.96,266.05,240.74,282.01,235.53z"/>
					<path class="st1" d="M264.9,222.56c0,0-18.91,17.81-27.63,12.83C228.55,230.4,245.47,223.78,264.9,222.56z"/>
					<path class="st1" d="M258.99,214.98c0,0-23.23,17.26-32.17,11.3S237.42,214.69,258.99,214.98z"/>
					<path class="st1" d="M251.74,209.26c0,0-28.93,11.84-36.34,4.76C207.98,206.93,229.69,205.19,251.74,209.26z"/>
					<path class="st1" d="M236.18,195.26c-13.58,0.72-33.32,3.14-46.14-7.46c11.75-6.18,28.07,4.54,41.22,5.97
						C232.91,194.22,234.55,194.72,236.18,195.26z"/>
					<path class="st1" d="M242.45,202.14c-11.79,2.56-28.02,8.31-41.08-0.87c-2.59-1.35-0.8-3.97,2.04-4.27
						c10.11-0.65,20.03,1.56,30.46,3.11C236.7,200.68,239.57,201.36,242.45,202.14z"/>
				</g>
				<path class="st1" d="M356.86,303.56c-1.26-3.18-2.56-6.4-3.91-9.62c-1.35-3.22-2.75-6.44-4.24-9.66
					c-15.43-42.76-61.6-60.23-96.66-85.59c-2.55-1.85-5.1-3.7-7.66-5.57c-7.67-5.59-15.39-11.24-23.11-17.07
					c7.71,5.36,15.6,10.55,23.61,15.6c2.67,1.68,5.36,3.35,8.05,5c39.44,23.8,100.18,34.15,103.81,86.33
					c0.68,3.85,1.14,7.73,1.44,11.58s0.42,7.68,0.42,11.44L356.86,303.56z"/>
				<path class="st1" d="M215.1,167.56c36.7,12.68,73.94,29.03,107.33,50.62c3.45,2.02,6.9,4.02,10.36,5.98
					c17.32,9.8,35,18.48,54.76,21.89L215.1,167.56z"/>
			</g>
		</g>
		<g>
			<g>
				<path class="st1" d="M492.48,298.01c0,0-11.35,26.48-4.76,32.34C494.32,336.21,496.13,317,492.48,298.01z"/>
				<path class="st1" d="M503.64,296.67c0,0-7.69,31.29,1.15,34.52C513.64,334.41,511.78,314.32,503.64,296.67z"/>
				<path class="st1" d="M517.83,292.49c0,0-2.54,36.75,8.05,38.65C536.47,333.04,530.44,310.78,517.83,292.49z"/>
				<path class="st1" d="M533.81,290.73c0,0-2.54,36.75,8.05,38.65C552.45,331.28,546.42,309.01,533.81,290.73z"/>
				<path class="st1" d="M547.8,278.9c0,0,2.91,46.3,16.44,46.92C577.78,326.45,566.58,299.64,547.8,278.9z"/>
				<path class="st1" d="M576.66,261.27c0,0,20.09,50.36,35.34,46.12C627.25,303.16,605.05,277.47,576.66,261.27z"/>
				<path class="st1" d="M560.64,271.4c0,0,12.45,47.84,27.33,47.69S585.26,291.8,560.64,271.4z"/>
				<path class="st1" d="M591.39,252.39c0,0,26.46,49.84,41.77,43.74S622.6,265.95,591.39,252.39z"/>
				<path class="st1" d="M602.75,238.98c0,0,33.59,51.04,49.47,42.91C668.1,273.76,637.76,250.43,602.75,238.98z"/>
				<path class="st1" d="M615.84,230.45c0,0,44.1,42.29,57.77,30.83C687.28,249.82,652.52,233.82,615.84,230.45z"/>
				<path class="st1" d="M644.34,208.31c21.83,9.2,53.26,25.56,76.51,9.38c-17.59-20.19-46.55-5.71-68.2-9.93
					C649.87,207.85,647.1,208.03,644.34,208.31z"/>
				<path class="st1" d="M662.95,197.36c3.43,0.79,6.92,1.52,10.44,2.16c3.52,0.64,7.08,1.21,10.66,1.66
					c28.32,4,59.95-2.91,81.35-21.46c-29.43-8.92-57.62,8.15-85.92,13.59c-3.95,0.74-7.89,1.33-11.83,1.69
					C665.96,195.68,664.39,196.46,662.95,197.36z"/>
				<path class="st1" d="M671.48,183.19c3.47-0.03,6.93-0.13,10.37-0.32s6.87-0.46,10.27-0.85c3.59-0.86,7.3-1.76,11.07-2.73
					c3.77-0.97,7.62-2.01,11.53-3.17c37.05-10.67,78.42-29.68,87.3-70.42c-28.16,24.61-57.07,50.74-93.52,60.88
					c-3.42,1.77-6.84,3.5-10.27,5.21s-6.87,3.38-10.31,5.03c-3.19,1.11-6.46,2.11-9.83,2.95C675.74,180.87,673.53,182,671.48,183.19
					z"/>
				<path class="st1" d="M655.78,176.13c11.04-1.97,22.03-4.59,32.47-8.16c3.48-1.19,6.89-2.48,10.23-3.89
					c3.44-1.45,6.85-3.14,10.22-5.03c31.3-15.08,58.8-51.63,33.33-87.42c11.86,39.01-16.32,67.88-49.17,83.7
					c-3.51,1.8-7.11,3.51-10.7,5.2c-7.2,3.39-14.4,6.73-21.16,10.39C659.02,172.57,657.28,174.3,655.78,176.13z"/>
				<path class="st1" d="M638.46,171.96c9.53-2.34,18.97-5.24,27.88-8.93c2.97-1.23,5.88-2.55,8.71-3.96
					c2.92-1.46,5.8-3.12,8.64-4.96c26.47-14.9,48.43-48.34,24.21-78.15c12.52,33.38-10.46,60.15-38.24,75.78
					c-2.96,1.76-6.01,3.46-9.05,5.14c-6.09,3.36-12.19,6.67-17.89,10.25C641.09,168.67,639.67,170.28,638.46,171.96z"/>
				<path class="st1" d="M631.44,171.73c6.19-4.27,12.18-8.92,17.56-13.99c1.79-1.69,3.52-3.43,5.17-5.21
					c1.7-1.84,3.31-3.82,4.85-5.91c14.93-17.89,21.58-47.83-3.9-62.62c18.06,20.53,8.86,45.97-6.8,64.74
					c-1.64,2.07-3.37,4.11-5.09,6.14c-3.45,4.07-6.93,8.1-10.04,12.21C632.43,168.65,631.85,170.19,631.44,171.73z"/>
				<path class="st1" d="M632.56,219.96c18.5,12.23,43.46,33.99,66.77,21.08c4.52-1.53,2.23-8.3-2.31-10.54
					c-16.23-7.09-32.82-7.78-50.09-10.2C642.22,219.96,637.4,219.84,632.56,219.96z"/>
				<g>
					<path class="st1" d="M512.04,264.62c0,0-5.08,13.31-0.78,14.87C515.55,281.06,515.41,272.38,512.04,264.62z"/>
					<path class="st1" d="M518.6,262.35c0,0-2.6,14.86,2.87,14.93C526.94,277.36,524.56,268.84,518.6,262.35z"/>
					<path class="st1" d="M526.78,258.37c0,0,0.82,16.47,7.24,15.7C540.44,273.3,535.44,264.47,526.78,258.37z"/>
					<path class="st1" d="M536.18,255.18c0,0,0.82,16.47,7.24,15.7S544.85,261.28,536.18,255.18z"/>
					<path class="st1" d="M543.76,247.89c0,0,4.66,19.83,12.76,18.05C564.62,264.17,556.25,254.13,543.76,247.89z"/>
					<path class="st1" d="M559.82,235.81c0,0,15.15,19,23.96,14.84S577.75,238.61,559.82,235.81z"/>
					<path class="st1" d="M550.93,242.67c0,0,10.44,19.06,19.29,16.74S566.88,247.87,550.93,242.67z"/>
					<path class="st1" d="M568.03,229.7c0,0,18.91,17.81,27.63,12.83C604.39,237.54,587.46,230.91,568.03,229.7z"/>
					<path class="st1" d="M573.94,222.11c0,0,23.23,17.26,32.17,11.3C615.04,227.45,595.51,221.83,573.94,222.11z"/>
					<path class="st1" d="M581.19,216.4c0,0,28.93,11.84,36.34,4.76S603.24,212.32,581.19,216.4z"/>
					<path class="st1" d="M596.75,202.4c13.58,0.72,33.32,3.14,46.14-7.46c-11.75-6.18-28.07,4.54-41.22,5.97
						C600.02,201.36,598.38,201.86,596.75,202.4z"/>
					<path class="st1" d="M590.48,209.28c11.79,2.56,28.02,8.31,41.08-0.87c2.59-1.35,0.8-3.97-2.04-4.27
						c-10.11-0.65-20.03,1.56-30.46,3.11C596.23,207.82,593.36,208.49,590.48,209.28z"/>
				</g>
				<path class="st1" d="M476.07,310.7c1.26-3.18,2.56-6.4,3.91-9.62c1.35-3.22,2.75-6.44,4.24-9.66
					c15.43-42.76,61.6-60.23,96.66-85.59c2.55-1.85,5.1-3.7,7.66-5.57c7.67-5.59,15.39-11.24,23.11-17.07
					c-7.71,5.36-15.6,10.55-23.61,15.6c-2.67,1.68-5.36,3.35-8.05,5c-39.44,23.8-100.18,34.15-103.81,86.33
					c-0.68,3.85-1.14,7.73-1.44,11.58c-0.3,3.85-0.42,7.68-0.42,11.44L476.07,310.7z"/>
				<path class="st1" d="M617.84,174.7c-36.7,12.68-73.94,29.03-107.33,50.62c-3.45,2.02-6.9,4.02-10.36,5.98
					c-17.32,9.8-35,18.48-54.76,21.89L617.84,174.7z"/>
			</g>
		</g>
	</g>
	<circle class="st2" cx="416.47" cy="341.6" r="7.2"/>
	<path class="st3" d="M579.06,443.57c-0.91-2-1.89-3.94-2.93-5.82L420.09,94.55L260.38,448.79h0.21c-11.13,29.58-4.22,60,16.45,70.6
		l52-115.25c-0.05-0.02-0.1-0.03-0.15-0.05l19.09-42.58h0.11l17.46-38.82h-0.16l54.57-121.66l55.16,121.66h-0.15l17.73,38.82h0.03
		l4.54,10l5.33,11.67l-0.04,0l9.49,20.92c-0.04,0.01-0.08,0.03-0.12,0.04l19.24,42.12l1.15,2.53h0.01l32.24,70.6
		C586.74,508.16,593.28,474.72,579.06,443.57z"/>
</g>
</svg>
